<svg width="8" height="8" viewBox="0 0 8 8" fill="none" xmlns="http://www.w3.org/2000/svg">
<path d="M7.46521 0.0676086C7.60629 0.0682566 7.74141 0.124588 7.84117 0.224348C7.94093 0.324108 7.99726 0.459226 7.99791 0.600306L7.99791 5.62576C8.00043 5.69729 7.98853 5.76861 7.96289 5.83544C7.93726 5.90227 7.89842 5.96326 7.84871 6.01476C7.79899 6.06626 7.73942 6.10722 7.67353 6.1352C7.60764 6.16317 7.53679 6.17759 7.46521 6.17759C7.39363 6.17759 7.32278 6.16317 7.25689 6.1352C7.19101 6.10722 7.13143 6.06626 7.08171 6.01476C7.032 5.96326 6.99316 5.90227 6.96753 5.83544C6.9419 5.7686 6.92999 5.69729 6.93251 5.62576L6.93251 1.88682L1.81158 7.00775C1.71162 7.10772 1.57604 7.16387 1.43467 7.16387C1.2933 7.16387 1.15773 7.10772 1.05776 7.00775C0.957801 6.90779 0.901643 6.77221 0.901643 6.63085C0.901643 6.48948 0.957801 6.3539 1.05776 6.25394L6.1787 1.133L2.43976 1.133C2.30174 1.12813 2.17099 1.06988 2.07507 0.970507C1.97914 0.871139 1.92554 0.738418 1.92554 0.600306C1.92554 0.462193 1.97914 0.329473 2.07507 0.230105C2.17099 0.130737 2.30173 0.0724805 2.43976 0.0676083L7.46521 0.0676086Z" fill="black"/>
</svg>
