<svg width="10" height="10" viewBox="0 0 10 10" fill="none" xmlns="http://www.w3.org/2000/svg">
<path d="M8.69298 0.345972C8.8678 0.346775 9.03523 0.416577 9.15885 0.540194C9.28246 0.66381 9.35226 0.831239 9.35307 1.00606L9.35307 7.23328C9.3562 7.32192 9.34144 7.41029 9.30968 7.4931C9.27791 7.57592 9.22979 7.65149 9.16819 7.71531C9.10659 7.77912 9.03276 7.82988 8.95112 7.86454C8.86947 7.89921 8.78168 7.91707 8.69298 7.91707C8.60428 7.91707 8.51649 7.89921 8.43485 7.86454C8.3532 7.82988 8.27938 7.77913 8.21777 7.71531C8.15617 7.65149 8.10805 7.57592 8.07629 7.4931C8.04452 7.41029 8.02977 7.32192 8.0329 7.23328L8.0329 2.60023L1.68736 8.94576C1.56349 9.06963 1.39549 9.13922 1.22032 9.13922C1.04514 9.13922 0.877143 9.06963 0.753276 8.94576C0.629409 8.8219 0.559821 8.6539 0.559821 8.47872C0.559821 8.30355 0.629409 8.13555 0.753276 8.01168L7.09881 1.66614L2.46576 1.66614C2.29473 1.66011 2.13271 1.58792 2.01385 1.46479C1.89499 1.34166 1.82856 1.1772 1.82857 1.00606C1.82856 0.834917 1.89499 0.670457 2.01385 0.547327C2.13271 0.424196 2.29473 0.352009 2.46576 0.345972L8.69298 0.345972Z" fill="black"/>
</svg>
